<?xml version="1.0" encoding="utf-8"?>
<!-- Generator: Adobe Illustrator 23.0.1, SVG Export Plug-In . SVG Version: 6.00 Build 0)  -->
<svg version="1.1" id="Layer_1" xmlns="http://www.w3.org/2000/svg" xmlns:xlink="http://www.w3.org/1999/xlink" x="0px" y="0px"
	 viewBox="0 0 641.16 301.03" style="enable-background:new 0 0 641.16 301.03;" xml:space="preserve">
<style type="text/css">
	.st0{fill:#231F20;}
</style>
<g>
	<g>
		<path d="M73.33,142.61h16.4c0.73,6.76,3.58,12.35,14.79,12.35c7.51,0,12.47-4.12,12.47-10.02c0-6.03-3.18-8.15-14.27-9.84
			c-19.34-2.54-27.26-8.35-27.26-22.94c0-12.88,10.77-22.51,27.47-22.51c17.01,0,26.94,7.62,28.32,22.62h-15.73
			c-1.07-6.88-5.08-10.04-12.58-10.04c-7.5,0-11.31,3.48-11.31,8.56c0,5.38,2.43,7.92,14.06,9.61c18.28,2.33,27.68,7.3,27.68,22.95
			c0,13.41-10.99,24.1-28.84,24.1C83.79,167.45,74.28,157.72,73.33,142.61"/>
		<path d="M163.46,137.33h19.98l-9.93-32.66L163.46,137.33z M163.37,90.72h22.3l24.52,75.56h-17.87l-5.17-16.81h-27.38l-5.17,16.81
			h-16.07L163.37,90.72z"/>
		<polygon points="221.9,90.72 241.77,90.72 270.52,140.49 270.52,90.72 285.73,90.72 285.73,166.28 268.62,166.28 237.11,112.49 
			237.11,166.28 221.9,166.28 		"/>
		<polygon points="303.36,90.72 352.61,90.72 352.61,104.03 320.38,104.03 320.38,121.68 346.16,121.68 346.16,134.16 
			320.38,134.16 320.38,152.96 354.3,152.96 354.3,166.28 303.36,166.28 		"/>
		<path d="M520.81,125.61h-41.18v13.76h22.31c-4.01,8.28-12.48,14.01-22.31,14.01c-13.71,0-24.84-11.12-24.84-24.83
			c0-13.71,11.13-24.83,24.84-24.83c6.77,0,12.9,2.71,17.37,7.11l11.02-12.04c-7.39-7.05-17.37-11.42-28.4-11.42
			c-22.73,0-41.16,18.44-41.16,41.18c0,22.74,18.43,41.18,41.16,41.18c22.32,0,40.46-17.77,41.12-39.93h-0.01L520.81,125.61z"/>
		<path d="M407.14,114.61c0,7.29-4.34,10.87-12.9,10.87h-9.62v-21.66h9.62c8.24,0,12.9,2.64,12.9,10.35V114.61z M510.08,178.46
			c-9.31,5.67-20.1,8.83-31.26,8.83c-22.3,0-42.6-13.65-55.73-37.44c-1.64-2.98-6.69-12.8-9.34-17.94c6-3.3,10.07-8.92,10.07-17.83
			v-0.43c0-15.64-11.31-22.93-29.17-22.93H367.6v75.56h17.02v-29.15h7.39l1.13-0.03h5.51c2.05,3.99,8.58,16.7,10.6,20.38
			c15.98,28.98,41.34,45.6,69.57,45.6c20.04,0,39.14-7.62,55.63-24.62H510.08z"/>
		<path d="M586.42,87.37h-15.9l-17.99,32.16C551.54,82.45,515.56,54,479.63,54c-25.58,0-48.6,13.08-62.08,33.37h20.27
			c10.73-10.9,25.62-17.59,41.81-17.59c32.38,0,58.72,26.33,58.72,58.71c0,0.71-0.04,1.42-0.07,2.13
			c-0.55,9.89-6.32,27.02-13.56,35.64h18.9L586.42,87.37z"/>
	</g>
	<g>
		<path class="st0" d="M84.4,227.82c-0.8-0.44-1.6-0.65-2.38-0.65c-0.91,0-1.73,0.23-2.47,0.68c-0.74,0.45-1.33,1.08-1.76,1.87
			c-0.43,0.79-0.64,1.68-0.64,2.65s0.21,1.86,0.64,2.65c0.43,0.79,1.01,1.42,1.76,1.87c0.74,0.45,1.57,0.68,2.47,0.68
			c0.73,0,1.5-0.19,2.31-0.56c0.8-0.38,1.52-0.89,2.15-1.54l2.74,2.95c-0.97,1.03-2.13,1.84-3.47,2.45
			c-1.34,0.61-2.67,0.91-3.99,0.91c-1.78,0-3.38-0.41-4.82-1.23c-1.44-0.82-2.56-1.94-3.38-3.36c-0.82-1.42-1.23-3.01-1.23-4.77
			c0-1.74,0.42-3.32,1.26-4.72c0.84-1.4,1.99-2.5,3.45-3.31c1.46-0.8,3.1-1.21,4.91-1.21c1.33,0,2.65,0.28,3.95,0.83
			c1.3,0.56,2.4,1.31,3.31,2.27l-2.72,3.28C85.89,228.84,85.2,228.26,84.4,227.82z"/>
		<path class="st0" d="M129.27,224.4c1.48,0.8,2.64,1.91,3.49,3.31c0.85,1.4,1.27,2.97,1.27,4.72c0,1.76-0.42,3.35-1.27,4.77
			c-0.85,1.42-2.01,2.54-3.49,3.36c-1.48,0.82-3.13,1.23-4.96,1.23c-1.83,0-3.48-0.41-4.96-1.22c-1.48-0.81-2.64-1.93-3.49-3.36
			c-0.85-1.43-1.27-3.02-1.27-4.78c0-1.74,0.42-3.32,1.27-4.72c0.85-1.4,2.01-2.5,3.49-3.31c1.48-0.8,3.13-1.21,4.96-1.21
			C126.14,223.19,127.79,223.6,129.27,224.4z M121.89,227.86c-0.76,0.46-1.36,1.1-1.81,1.91c-0.44,0.81-0.67,1.7-0.67,2.68
			c0,0.99,0.23,1.89,0.68,2.7c0.45,0.81,1.06,1.45,1.81,1.92c0.75,0.47,1.57,0.71,2.46,0.71c0.89,0,1.7-0.23,2.45-0.71
			c0.74-0.47,1.33-1.11,1.76-1.92c0.43-0.81,0.64-1.71,0.64-2.7c0-0.97-0.21-1.87-0.64-2.68s-1.01-1.45-1.76-1.91
			c-0.74-0.46-1.56-0.69-2.45-0.69C123.47,227.17,122.64,227.4,121.89,227.86z"/>
		<path class="st0" d="M159.4,223.48h4.69v13.97h7.61v4H159.4V223.48z"/>
		<path class="st0" d="M197.08,223.48h4.69v13.97h7.61v4h-12.31V223.48z"/>
		<path class="st0" d="M249.84,241.45l-1.23-3.18h-7.77l-1.26,3.18h-4.82l7.72-17.97h4.82l7.54,17.97H249.84z M242.25,234.68h4.97
			l-2.46-6.41L242.25,234.68z"/>
		<path class="st0" d="M292.28,224.03c1,0.37,1.77,0.89,2.32,1.58c0.55,0.68,0.82,1.49,0.82,2.41c0,0.94-0.28,1.76-0.83,2.46
			c-0.56,0.7-1.31,1.18-2.27,1.44c1.14,0.22,2.05,0.74,2.7,1.56c0.66,0.82,0.99,1.81,0.99,2.97c0,1.01-0.28,1.89-0.85,2.65
			c-0.56,0.76-1.37,1.34-2.41,1.74c-1.04,0.4-2.27,0.6-3.67,0.6h-8.87v-17.97h8.54C290.1,223.48,291.28,223.66,292.28,224.03z
			 M290.03,230.15c0.38-0.32,0.56-0.76,0.56-1.32c0-0.55-0.19-0.97-0.56-1.27c-0.38-0.3-0.89-0.44-1.54-0.42h-3.59v3.49h3.59
			C289.14,230.63,289.66,230.47,290.03,230.15z M290.44,237.29c0.48-0.34,0.72-0.82,0.72-1.44c0-0.56-0.24-1.01-0.72-1.35
			c-0.48-0.33-1.13-0.49-1.95-0.47h-3.59v3.77h3.59C289.31,237.81,289.96,237.64,290.44,237.29z"/>
		<path class="st0" d="M336.06,224.4c1.48,0.8,2.64,1.91,3.49,3.31c0.85,1.4,1.27,2.97,1.27,4.72c0,1.76-0.42,3.35-1.27,4.77
			c-0.85,1.42-2.01,2.54-3.49,3.36c-1.48,0.82-3.13,1.23-4.96,1.23c-1.83,0-3.48-0.41-4.96-1.22c-1.48-0.81-2.64-1.93-3.49-3.36
			c-0.85-1.43-1.27-3.02-1.27-4.78c0-1.74,0.42-3.32,1.27-4.72c0.85-1.4,2.01-2.5,3.49-3.31c1.48-0.8,3.13-1.21,4.96-1.21
			C332.93,223.19,334.58,223.6,336.06,224.4z M328.68,227.86c-0.76,0.46-1.36,1.1-1.81,1.91c-0.44,0.81-0.67,1.7-0.67,2.68
			c0,0.99,0.23,1.89,0.68,2.7c0.45,0.81,1.06,1.45,1.81,1.92c0.75,0.47,1.57,0.71,2.46,0.71c0.89,0,1.7-0.23,2.45-0.71
			c0.74-0.47,1.33-1.11,1.76-1.92c0.43-0.81,0.64-1.71,0.64-2.7c0-0.97-0.21-1.87-0.64-2.68s-1.01-1.45-1.76-1.91
			c-0.74-0.46-1.56-0.69-2.45-0.69C330.26,227.17,329.44,227.4,328.68,227.86z"/>
		<path class="st0" d="M376.98,241.45l-2.61-4.97h-0.1h-3.38v4.97h-4.69v-17.97h8.08c2.37,0,4.22,0.55,5.52,1.65
			c1.31,1.1,1.96,2.65,1.96,4.65c0,1.35-0.27,2.52-0.82,3.5c-0.55,0.98-1.34,1.75-2.38,2.29l3.74,5.87H376.98z M370.88,232.73h3.41
			c0.96,0,1.7-0.24,2.22-0.72c0.52-0.48,0.78-1.17,0.78-2.08c0-0.87-0.26-1.54-0.78-2.01c-0.52-0.47-1.26-0.71-2.22-0.71h-3.41
			V232.73z"/>
		<path class="st0" d="M422.74,241.45l-1.23-3.18h-7.77l-1.26,3.18h-4.82l7.72-17.97h4.82l7.54,17.97H422.74z M415.15,234.68h4.97
			l-2.46-6.41L415.15,234.68z"/>
		<path class="st0" d="M453.12,223.48h15.41v3.87h-5.38v14.1h-4.69v-14.1h-5.33V223.48z"/>
		<path class="st0" d="M493.9,223.48h4.69v17.97h-4.69V223.48z"/>
		<path class="st0" d="M523.97,223.48h5.05l4.49,13l4.51-13h4.82l-7.03,17.97h-4.87L523.97,223.48z"/>
		<path class="st0" d="M568.21,223.48h14.18v3.74h-9.49v3.36h8.56v3.72l-8.56,0.03v3.38h9.74v3.74h-14.43V223.48z"/>
	</g>
</g>
<g>
</g>
<g>
</g>
<g>
</g>
<g>
</g>
<g>
</g>
<g>
</g>
</svg>
