<?xml version="1.0" standalone="no"?>
<!DOCTYPE svg PUBLIC "-//W3C//DTD SVG 20010904//EN"
 "http://www.w3.org/TR/2001/REC-SVG-20010904/DTD/svg10.dtd">
<svg version="1.0" xmlns="http://www.w3.org/2000/svg"
 width="265.000000pt" height="86.000000pt" viewBox="0 0 265.000000 86.000000"
 preserveAspectRatio="xMidYMid meet">
<metadata>
Created by potrace 1.16, written by Peter Selinger 2001-2019
</metadata>
<g transform="translate(0.000000,86.000000) scale(0.100000,-0.100000)"
fill="#000000" stroke="none">
<path d="M1930 755 c-62 -18 -151 -74 -180 -116 -11 -15 -20 -30 -20 -33 0 -3
22 -6 49 -6 39 0 59 7 100 34 160 108 367 19 411 -177 11 -52 -7 -139 -42
-194 l-20 -34 53 3 53 3 98 180 c54 99 98 183 98 188 0 4 -19 7 -42 7 -43 0
-43 -1 -77 -65 l-34 -64 -17 49 c-58 172 -253 274 -430 225z"/>
<path d="M1952 597 c-42 -16 -91 -63 -108 -104 -18 -42 -18 -124 0 -166 18
-44 77 -94 128 -107 116 -32 235 46 246 160 l5 50 -102 0 -101 0 0 -35 0 -35
53 0 52 -1 -33 -29 c-44 -41 -89 -40 -136 0 -43 39 -53 77 -30 125 28 60 94
81 156 49 30 -16 31 -15 54 13 13 15 22 33 21 38 -2 6 -23 20 -47 33 -48 24
-106 27 -158 9z"/>
<path d="M184 586 c-43 -19 -64 -53 -64 -101 0 -70 16 -83 148 -115 35 -9 42
-15 42 -36 0 -52 -94 -55 -107 -4 -4 16 -14 20 -49 20 -41 0 -44 -2 -44 -26 0
-40 57 -91 111 -99 101 -15 179 37 179 119 0 71 -15 84 -147 116 -35 9 -43 15
-43 34 0 42 60 50 86 11 13 -20 25 -25 56 -25 40 0 40 0 34 32 -8 40 -23 58
-63 75 -41 17 -99 16 -139 -1z"/>
<path d="M476 422 c-31 -92 -56 -173 -56 -180 0 -9 13 -12 43 -10 40 3 43 5
51 41 l10 38 60 -3 c58 -3 60 -4 71 -38 11 -33 15 -35 58 -38 26 -2 47 0 47 4
0 4 -25 85 -55 181 l-56 173 -59 0 -58 0 -56 -168z"/>
<path d="M810 410 l0 -180 40 0 39 0 3 113 3 112 65 -112 65 -113 48 0 47 0 0
180 0 180 -40 0 -39 0 -3 -106 -3 -106 -60 106 -60 106 -52 0 -53 0 0 -180z"/>
<path d="M1190 410 l0 -180 125 0 125 0 0 35 0 35 -80 0 -80 0 0 40 0 40 60 0
60 0 0 35 0 35 -60 0 -60 0 0 35 0 35 75 0 75 0 0 35 0 35 -120 0 -120 0 0
-180z"/>
<path d="M1490 410 l0 -180 45 0 45 0 0 70 c0 70 0 70 28 70 24 0 33 -10 72
-80 48 -88 120 -164 191 -201 38 -21 58 -24 149 -24 118 0 163 15 236 80 l39
34 -68 1 c-46 0 -78 -6 -100 -17 -21 -12 -55 -18 -102 -18 -59 0 -78 5 -124
30 -61 34 -108 84 -147 160 -28 53 -28 54 -9 75 14 16 20 36 20 72 0 43 -4 53
-33 79 -31 28 -35 29 -137 29 l-105 0 0 -180z"/>
</g>
</svg>
